<?xml version="1.0" encoding="iso-8859-1"?>
<!-- Generator: Adobe Illustrator 16.0.0, SVG Export Plug-In . SVG Version: 6.00 Build 0)  -->
<!DOCTYPE svg PUBLIC "-//W3C//DTD SVG 1.1//EN" "http://www.w3.org/Graphics/SVG/1.1/DTD/svg11.dtd">
<svg xmlns="http://www.w3.org/2000/svg" xmlns:xlink="http://www.w3.org/1999/xlink" version="1.1" id="Capa_1" x="0px" y="0px" width="512px" height="512px" viewBox="0 0 274.335 274.335" style="enable-background:new 0 0 274.335 274.335;" xml:space="preserve">
<g>
	<g>
		<path d="M137.162,251.198c-18.913-14.015-31.955-35.513-34.525-60.144c10.637,3.662,22.001,5.74,33.867,5.74    c12.379,0,24.209-2.275,35.233-6.245C169.299,215.386,156.209,237.087,137.162,251.198z" fill="#24dee7"/>
		<path d="M51.233,103.43c10.667-4.741,22.437-7.44,34.852-7.44c12.069,0,23.557,2.517,33.984,7.023    c-17.297,14.94-29.688,35.38-34.317,58.63C67.224,148.048,54.344,127.28,51.233,103.43z" fill="#24dee7"/>
		<path d="M136.504,178.349c-11.922,0-23.286-2.438-33.621-6.846c2.951-23.953,15.777-44.844,34.279-58.55    c18.35,13.598,31.104,34.254,34.19,57.961C160.688,175.658,148.907,178.349,136.504,178.349z" fill="#24dee7"/>
		<path d="M154.27,103.012c10.43-4.5,21.911-7.023,33.98-7.023c11.92,0,23.287,2.441,33.621,6.843    c-2.912,23.602-15.402,44.213-33.44,57.935C183.65,137.876,171.341,117.763,154.27,103.012z" fill="#24dee7"/>
		<path d="M136.504,6.179c44.438,0,81.104,33.843,85.613,77.107c-10.628-3.66-22.001-5.743-33.867-5.743    c-18.555,0-35.969,4.912-51.088,13.43c-15.121-8.518-32.528-13.43-51.083-13.43c-12.379,0-24.208,2.275-35.228,6.242    C55.124,40.28,91.9,6.179,136.504,6.179z" fill="#24dee7"/>
		<path d="M86.085,268.156C38.614,268.156,0,229.545,0,182.071c0-27.958,13.454-52.773,34.173-68.509    c6.089,29.297,24.536,54.055,49.567,68.785c0.081,31.465,14.186,59.664,36.335,78.789    C109.639,265.646,98.154,268.156,86.085,268.156z" fill="#24dee7"/>
		<path d="M188.25,268.156c-12.069,0-23.551-2.51-33.98-7.02c22.199-19.186,36.347-47.48,36.347-79.065    c0-0.174-0.036-0.354-0.036-0.528c24.607-14.958,42.616-39.691,48.423-68.848c21.371,15.682,35.332,40.902,35.332,69.376    C274.335,229.545,235.719,268.156,188.25,268.156z" fill="#24dee7"/>
	</g>
</g>
<g>
</g>
<g>
</g>
<g>
</g>
<g>
</g>
<g>
</g>
<g>
</g>
<g>
</g>
<g>
</g>
<g>
</g>
<g>
</g>
<g>
</g>
<g>
</g>
<g>
</g>
<g>
</g>
<g>
</g>
</svg>
