<svg xmlns="http://www.w3.org/2000/svg" height="113" width="134"><linearGradient y2="113" x2="0" gradientUnits="userSpaceOnUse" id="a"><stop offset="0" stop-color="#fff"/><stop offset="1" stop-color="#d9d9d9"/></linearGradient><path stroke-width="2" stroke="#B3B3B3" fill="url(#a)" d="M1 1h132v111H1z"/><path d="M15 16h29.7a39 39 0 0 0 0 64H15zm52 0a32 32 0 0 0 0 64 32 32 0 0 0 0-64m52 0H89.3a39 39 0 0 1 0 64H119zM20.182 98.162q-1.08 0-2.214-.09t-2.052-.288l2.88-12.06q1.026-.198 2.142-.27 1.134-.072 2.07-.072 1.08 0 1.854.234.792.216 1.278.594.504.378.738.9.252.504.252 1.08 0 .396-.09.828-.072.432-.324.864-.234.414-.666.792-.414.378-1.098.684.81.36 1.188.99.378.612.378 1.368 0 .864-.342 1.674-.342.792-1.098 1.422-.756.612-1.962.99-1.206.36-2.934.36zm-.252-5.616l-.774 3.24q.288.054.72.09.45.018.828.018.54 0 1.062-.072.54-.09.954-.306.432-.216.702-.594.27-.378.27-.972 0-.252-.108-.504-.09-.252-.306-.45t-.576-.324q-.342-.126-.828-.126H19.93zm.522-2.106h1.764q1.08 0 1.602-.468.54-.468.54-1.116 0-.342-.162-.576-.144-.252-.396-.396-.252-.144-.576-.198-.324-.072-.666-.072-.378 0-.81.036-.432.018-.648.054l-.648 2.736zM30.338 98h-2.664l2.25-9.468h2.682L30.338 98zm1.296-10.62q-.558 0-1.008-.324-.45-.342-.45-1.026 0-.378.144-.702.162-.342.414-.576.252-.252.576-.396.342-.144.72-.144.558 0 1.008.342.45.324.45 1.008 0 .378-.162.72-.144.324-.396.576-.252.234-.594.378-.324.144-.702.144zm3.712-1.206l2.79-.432-.684 2.79h2.988l-.54 2.196h-2.97l-.792 3.312q-.108.414-.144.774-.018.36.09.63.126.252.414.396.288.144.792.144.432 0 .828-.072.414-.09.828-.234l.198 2.052q-.54.198-1.17.342-.63.144-1.494.144-1.242 0-1.926-.36-.684-.378-.972-1.008-.288-.648-.252-1.476.036-.828.252-1.746l1.764-7.452zm5.173 8.046q0-1.224.396-2.304.396-1.08 1.134-1.89.738-.81 1.782-1.278 1.062-.468 2.358-.468.81 0 1.44.162.648.144 1.17.396l-.918 2.088q-.36-.144-.756-.252-.378-.126-.936-.126-1.35 0-2.124.918-.774.9-.774 2.466 0 .918.396 1.494.396.558 1.458.558.522 0 1.008-.108t.864-.27l.198 2.142q-.504.198-1.116.342-.594.162-1.458.162-1.116 0-1.89-.324-.774-.324-1.278-.864-.504-.558-.738-1.296-.216-.738-.216-1.548zm11.935 4.032q-.954 0-1.656-.288t-1.17-.81q-.45-.522-.684-1.224-.234-.72-.234-1.584 0-1.08.342-2.16.36-1.08 1.044-1.944.684-.864 1.674-1.404.99-.558 2.268-.558.936 0 1.638.288.72.288 1.17.81.468.522.702 1.242.234.702.234 1.566 0 1.08-.342 2.16t-1.008 1.944q-.666.864-1.674 1.422-.99.54-2.304.54zm1.332-7.704q-.594 0-1.044.342-.45.342-.756.864t-.468 1.152q-.144.612-.144 1.17 0 .918.288 1.422.288.486 1.044.486.594 0 1.044-.342.45-.342.756-.864t.45-1.134q.162-.63.162-1.188 0-.918-.288-1.404-.288-.504-1.044-.504zM61.17 98h-2.664l2.25-9.468h2.682L61.17 98zm1.296-10.62q-.558 0-1.008-.324-.45-.342-.45-1.026 0-.378.144-.702.162-.342.414-.576.252-.252.576-.396.342-.144.72-.144.558 0 1.008.342.45.324.45 1.008 0 .378-.162.72-.144.324-.396.576-.252.234-.594.378-.324.144-.702.144zm3.316 1.584l.666-.198q.378-.126.828-.216.468-.108 1.026-.162.576-.072 1.296-.072 2.124 0 2.916 1.224.792 1.224.27 3.348L71.56 98h-2.682l1.188-5.004q.108-.468.162-.9.072-.45 0-.774-.072-.342-.342-.54-.252-.216-.792-.216-.522 0-1.062.108L66.286 98h-2.682l2.178-9.036zm22.133 8.496q-.738.36-1.638.576-.9.216-2.196.216-1.116 0-2.052-.36-.918-.378-1.584-1.062-.648-.684-1.008-1.656-.36-.99-.36-2.214 0-1.404.486-2.79.504-1.386 1.458-2.466.972-1.098 2.358-1.782 1.404-.684 3.222-.684.864 0 1.692.198.846.198 1.764.702l-1.008 2.178q-.756-.396-1.35-.54-.594-.144-1.278-.144-1.026 0-1.854.414-.81.414-1.404 1.134-.576.702-.882 1.638-.306.936-.306 1.98 0 1.584.684 2.304.702.72 1.998.72.864 0 1.584-.18.738-.18 1.368-.468l.306 2.286zm10.227-3.546q-.252 1.026-.144 2.07.108 1.026.414 1.836l-2.394.342q-.108-.216-.198-.414-.09-.198-.18-.45-.504.414-1.116.684-.612.27-1.368.27-.9 0-1.548-.306-.63-.324-1.044-.846-.396-.54-.576-1.242-.18-.72-.18-1.53 0-1.242.432-2.34.45-1.098 1.224-1.908.792-.828 1.854-1.296 1.062-.468 2.304-.468.162 0 .558.018.414.018.936.09.522.054 1.098.198.576.144 1.098.396l-1.17 4.896zm-1.872-3.312q-.234-.036-.432-.054-.18-.018-.45-.018-.612 0-1.152.306-.522.306-.918.81-.396.486-.63 1.134-.216.648-.216 1.35 0 .864.288 1.368.288.504 1.062.504.414 0 .738-.162.342-.162.72-.54.036-.45.108-.936.09-.504.18-.918l.702-2.844zm6.658 5.49q.918 0 1.26-.252.342-.27.342-.576 0-.198-.072-.342-.054-.144-.198-.27-.144-.126-.396-.252-.252-.144-.648-.324-.45-.198-.846-.414-.396-.234-.702-.54-.288-.324-.468-.72-.162-.414-.162-.972 0-1.458 1.062-2.304 1.08-.846 3.132-.846.972 0 1.728.216t1.224.468l-.918 1.998q-.378-.198-.972-.378t-1.17-.18q-.252 0-.504.036-.234.018-.45.108-.198.09-.324.252t-.126.432q0 .36.27.54.288.18.792.432.702.342 1.17.63.468.288.738.612.288.324.414.738t.126.972q0 .576-.252 1.134-.234.558-.756.99-.522.432-1.332.702-.81.27-1.944.27-.702 0-1.278-.09-.558-.09-.99-.216-.432-.144-.738-.288-.288-.144-.45-.234l.918-2.052q.306.18.954.45.648.27 1.566.27zm11.995-7.722q.774 0 1.332.234.558.216.918.63.36.396.54.954.18.558.18 1.206 0 .756-.18 1.494L116.49 98h-2.682l1.188-5.004q.072-.306.126-.648.072-.342.072-.648 0-.468-.252-.792-.234-.342-.918-.342-.288 0-.558.036-.252.036-.504.09L111.215 98h-2.682l3.24-13.536 2.79-.432-1.098 4.518q.36-.072.72-.126.378-.054.738-.054z" fill="#fff"/><path d="M15 15h29.7a39 39 0 0 0 0 64H15zm52 0a32 32 0 0 0 0 64 32 32 0 0 0 0-64m52 0H89.3a39 39 0 0 1 0 64H119z" fill="#f7931a"/><path d="M77.313 36.356c-1.436-4.058-5.373-4.557-10.004-3.824l-1.439-5.768-3.51.875 1.4 5.616c-.923.23-1.862.484-2.795.736l-1.409-5.653-3.509.875 1.437 5.767c-.756.205-1.5.405-2.227.587l-.005-.018-4.843 1.206.936 3.75s2.58-.697 2.55-.638c1.421-.354 2.09.356 2.402 1.035l1.639 6.57a3.03 3.03 0 0 1 .377-.067l-.37.093 2.294 9.205c.049.463-.036 1.242-1.03 1.492.055.028-2.552.635-2.552.635l.348 4.367 4.569-1.14c.85-.21 1.69-.404 2.513-.604l1.456 5.833 3.507-.873-1.439-5.772c.968-.22 1.902-.445 2.812-.673l1.43 5.746 3.511-.876-1.45-5.823c5.818-1.81 9.578-4.328 8.71-9.999-.7-4.566-3.296-6.034-6.847-6.003 1.777-1.544 2.595-3.688 1.538-6.657zm-1.802 13.699c1.09 4.359-6.499 5.724-8.878 6.32l-1.926-7.73c2.38-.593 9.671-3.137 10.804 1.41zM71.16 39.557c.987 3.967-5.353 5.056-7.335 5.55l-1.748-7.01c1.982-.494 8.05-2.677 9.083 1.46z" fill="#fff"/><path d="M20.182 97.162q-1.08 0-2.214-.09t-2.052-.288l2.88-12.06q1.026-.198 2.142-.27 1.134-.072 2.07-.072 1.08 0 1.854.234.792.216 1.278.594.504.378.738.9.252.504.252 1.08 0 .396-.09.828-.072.432-.324.864-.234.414-.666.792-.414.378-1.098.684.81.36 1.188.99.378.612.378 1.368 0 .864-.342 1.674-.342.792-1.098 1.422-.756.612-1.962.99-1.206.36-2.934.36zm-.252-5.616l-.774 3.24q.288.054.72.09.45.018.828.018.54 0 1.062-.072.54-.09.954-.306.432-.216.702-.594.27-.378.27-.972 0-.252-.108-.504-.09-.252-.306-.45t-.576-.324q-.342-.126-.828-.126H19.93zm.522-2.106h1.764q1.08 0 1.602-.468.54-.468.54-1.116 0-.342-.162-.576-.144-.252-.396-.396-.252-.144-.576-.198-.324-.072-.666-.072-.378 0-.81.036-.432.018-.648.054l-.648 2.736zM30.338 97h-2.664l2.25-9.468h2.682L30.338 97zm1.296-10.62q-.558 0-1.008-.324-.45-.342-.45-1.026 0-.378.144-.702.162-.342.414-.576.252-.252.576-.396.342-.144.72-.144.558 0 1.008.342.45.324.45 1.008 0 .378-.162.72-.144.324-.396.576-.252.234-.594.378-.324.144-.702.144zm3.712-1.206l2.79-.432-.684 2.79h2.988l-.54 2.196h-2.97l-.792 3.312q-.108.414-.144.774-.018.36.09.63.126.252.414.396.288.144.792.144.432 0 .828-.072.414-.09.828-.234l.198 2.052q-.54.198-1.17.342-.63.144-1.494.144-1.242 0-1.926-.36-.684-.378-.972-1.008-.288-.648-.252-1.476.036-.828.252-1.746l1.764-7.452zm5.173 8.046q0-1.224.396-2.304.396-1.08 1.134-1.89.738-.81 1.782-1.278 1.062-.468 2.358-.468.81 0 1.44.162.648.144 1.17.396l-.918 2.088q-.36-.144-.756-.252-.378-.126-.936-.126-1.35 0-2.124.918-.774.9-.774 2.466 0 .918.396 1.494.396.558 1.458.558.522 0 1.008-.108t.864-.27l.198 2.142q-.504.198-1.116.342-.594.162-1.458.162-1.116 0-1.89-.324-.774-.324-1.278-.864-.504-.558-.738-1.296-.216-.738-.216-1.548zm11.935 4.032q-.954 0-1.656-.288t-1.17-.81q-.45-.522-.684-1.224-.234-.72-.234-1.584 0-1.08.342-2.16.36-1.08 1.044-1.944.684-.864 1.674-1.404.99-.558 2.268-.558.936 0 1.638.288.72.288 1.17.81.468.522.702 1.242.234.702.234 1.566 0 1.08-.342 2.16t-1.008 1.944q-.666.864-1.674 1.422-.99.54-2.304.54zm1.332-7.704q-.594 0-1.044.342-.45.342-.756.864t-.468 1.152q-.144.612-.144 1.17 0 .918.288 1.422.288.486 1.044.486.594 0 1.044-.342.45-.342.756-.864t.45-1.134q.162-.63.162-1.188 0-.918-.288-1.404-.288-.504-1.044-.504zM61.17 97h-2.664l2.25-9.468h2.682L61.17 97zm1.296-10.62q-.558 0-1.008-.324-.45-.342-.45-1.026 0-.378.144-.702.162-.342.414-.576.252-.252.576-.396.342-.144.72-.144.558 0 1.008.342.45.324.45 1.008 0 .378-.162.72-.144.324-.396.576-.252.234-.594.378-.324.144-.702.144zm3.316 1.584l.666-.198q.378-.126.828-.216.468-.108 1.026-.162.576-.072 1.296-.072 2.124 0 2.916 1.224.792 1.224.27 3.348L71.56 97h-2.682l1.188-5.004q.108-.468.162-.9.072-.45 0-.774-.072-.342-.342-.54-.252-.216-.792-.216-.522 0-1.062.108L66.286 97h-2.682l2.178-9.036zm22.133 8.496q-.738.36-1.638.576-.9.216-2.196.216-1.116 0-2.052-.36-.918-.378-1.584-1.062-.648-.684-1.008-1.656-.36-.99-.36-2.214 0-1.404.486-2.79.504-1.386 1.458-2.466.972-1.098 2.358-1.782 1.404-.684 3.222-.684.864 0 1.692.198.846.198 1.764.702l-1.008 2.178q-.756-.396-1.35-.54-.594-.144-1.278-.144-1.026 0-1.854.414-.81.414-1.404 1.134-.576.702-.882 1.638-.306.936-.306 1.98 0 1.584.684 2.304.702.72 1.998.72.864 0 1.584-.18.738-.18 1.368-.468l.306 2.286zm10.227-3.546q-.252 1.026-.144 2.07.108 1.026.414 1.836l-2.394.342q-.108-.216-.198-.414-.09-.198-.18-.45-.504.414-1.116.684-.612.27-1.368.27-.9 0-1.548-.306-.63-.324-1.044-.846-.396-.54-.576-1.242-.18-.72-.18-1.53 0-1.242.432-2.34.45-1.098 1.224-1.908.792-.828 1.854-1.296 1.062-.468 2.304-.468.162 0 .558.018.414.018.936.09.522.054 1.098.198.576.144 1.098.396l-1.17 4.896zm-1.872-3.312q-.234-.036-.432-.054-.18-.018-.45-.018-.612 0-1.152.306-.522.306-.918.81-.396.486-.63 1.134-.216.648-.216 1.35 0 .864.288 1.368.288.504 1.062.504.414 0 .738-.162.342-.162.72-.54.036-.45.108-.936.09-.504.18-.918l.702-2.844zm6.658 5.49q.918 0 1.26-.252.342-.27.342-.576 0-.198-.072-.342-.054-.144-.198-.27-.144-.126-.396-.252-.252-.144-.648-.324-.45-.198-.846-.414-.396-.234-.702-.54-.288-.324-.468-.72-.162-.414-.162-.972 0-1.458 1.062-2.304 1.08-.846 3.132-.846.972 0 1.728.216t1.224.468l-.918 1.998q-.378-.198-.972-.378t-1.17-.18q-.252 0-.504.036-.234.018-.45.108-.198.09-.324.252t-.126.432q0 .36.27.54.288.18.792.432.702.342 1.17.63.468.288.738.612.288.324.414.738t.126.972q0 .576-.252 1.134-.234.558-.756.99-.522.432-1.332.702-.81.27-1.944.27-.702 0-1.278-.09-.558-.09-.99-.216-.432-.144-.738-.288-.288-.144-.45-.234l.918-2.052q.306.18.954.45.648.27 1.566.27zm11.995-7.722q.774 0 1.332.234.558.216.918.63.36.396.54.954.18.558.18 1.206 0 .756-.18 1.494L116.49 97h-2.682l1.188-5.004q.072-.306.126-.648.072-.342.072-.648 0-.468-.252-.792-.234-.342-.918-.342-.288 0-.558.036-.252.036-.504.09L111.215 97h-2.682l3.24-13.536 2.79-.432-1.098 4.518q.36-.072.72-.126.378-.054.738-.054z" fill="#4d4d4d"/></svg>